<?xml version="1.0" encoding="UTF-8" standalone="no"?>
<!DOCTYPE svg PUBLIC "-//W3C//DTD SVG 1.1//EN"
 "http://www.w3.org/Graphics/SVG/1.1/DTD/svg11.dtd">
<!-- Generated by graphviz version 2.38.0 (20140413.2041)
 -->
<!-- Title: %3 Pages: 1 -->
<svg width="1355pt" height="257pt"
 viewBox="0.00 0.00 1355.00 257.00" xmlns="http://www.w3.org/2000/svg" xmlns:xlink="http://www.w3.org/1999/xlink">
<g id="graph0" class="graph" transform="scale(1 1) rotate(0) translate(4 253)">
<title>%3</title>
<polygon fill="white" stroke="none" points="-4,4 -4,-253 1351,-253 1351,4 -4,4"/>
<g id="clust1" class="cluster"><title>cluster_0</title>
<polygon fill="none" stroke="black" points="8,-79 8,-241 611,-241 611,-79 8,-79"/>
<text text-anchor="middle" x="309.5" y="-225.8" font-family="Times,serif" font-size="14.00">Monarch OBAN association for Gene:Id expressed in Anatomy:Id</text>
</g>
<!-- MONARCH -->
<g id="node1" class="node"><title>MONARCH</title>
<ellipse fill="none" stroke="black" cx="547" cy="-192" rx="55.7903" ry="18"/>
<text text-anchor="middle" x="547" y="-188.3" font-family="Times,serif" font-size="14.00">MONARCH</text>
</g>
<!-- Gene:Id -->
<g id="node2" class="node"><title>Gene:Id</title>
<ellipse fill="none" stroke="black" cx="62" cy="-105" rx="38.9931" ry="18"/>
<text text-anchor="middle" x="62" y="-101.3" font-family="Times,serif" font-size="14.00">Gene:Id</text>
</g>
<!-- MONARCH&#45;&gt;Gene:Id -->
<g id="edge1" class="edge"><title>MONARCH&#45;&gt;Gene:Id</title>
<path fill="none" stroke="black" d="M491.354,-189.712C376.688,-186.633 122.022,-177.445 89,-156 80.6151,-150.555 74.6376,-141.585 70.4755,-132.734"/>
<polygon fill="black" stroke="black" points="73.6642,-131.285 66.6436,-123.35 67.1836,-133.931 73.6642,-131.285"/>
<text text-anchor="middle" x="175" y="-144.8" font-family="Times,serif" font-size="14.00">OBAN:association_has_subject</text>
</g>
<!-- RO:0002206!expressed in -->
<g id="node3" class="node"><title>RO:0002206!expressed in</title>
<ellipse fill="none" stroke="black" cx="229" cy="-105" rx="102.882" ry="18"/>
<text text-anchor="middle" x="229" y="-101.3" font-family="Times,serif" font-size="14.00">RO:0002206!expressed in</text>
</g>
<!-- MONARCH&#45;&gt;RO:0002206!expressed in -->
<g id="edge2" class="edge"><title>MONARCH&#45;&gt;RO:0002206!expressed in</title>
<path fill="none" stroke="black" d="M492.876,-187.27C428.009,-182.18 323.6,-171.841 288,-156 274.51,-149.997 261.723,-139.925 251.524,-130.388"/>
<polygon fill="black" stroke="black" points="253.854,-127.771 244.26,-123.275 248.956,-132.772 253.854,-127.771"/>
<text text-anchor="middle" x="380" y="-144.8" font-family="Times,serif" font-size="14.00">OBAN:association_has_predicate</text>
</g>
<!-- Anatomy:Id -->
<g id="node4" class="node"><title>Anatomy:Id</title>
<ellipse fill="none" stroke="black" cx="420" cy="-105" rx="53.8905" ry="18"/>
<text text-anchor="middle" x="420" y="-101.3" font-family="Times,serif" font-size="14.00">Anatomy:Id</text>
</g>
<!-- MONARCH&#45;&gt;Anatomy:Id -->
<g id="edge3" class="edge"><title>MONARCH&#45;&gt;Anatomy:Id</title>
<path fill="none" stroke="black" d="M523.706,-175.41C503.477,-161.87 473.999,-142.141 451.637,-127.174"/>
<polygon fill="black" stroke="black" points="453.403,-124.145 443.146,-121.491 449.51,-129.962 453.403,-124.145"/>
<text text-anchor="middle" x="575.5" y="-144.8" font-family="Times,serif" font-size="14.00">OBAN:association_has_object</text>
</g>
<!-- OBAN:Association -->
<g id="node5" class="node"><title>OBAN:Association</title>
<ellipse fill="none" stroke="black" cx="698" cy="-105" rx="79.0865" ry="18"/>
<text text-anchor="middle" x="698" y="-101.3" font-family="Times,serif" font-size="14.00">OBAN:Association</text>
</g>
<!-- MONARCH&#45;&gt;OBAN:Association -->
<g id="edge4" class="edge"><title>MONARCH&#45;&gt;OBAN:Association</title>
<path fill="none" stroke="black" d="M596.547,-183.619C618.447,-178.54 643.574,-170.061 663,-156 671.664,-149.729 678.937,-140.63 684.569,-131.908"/>
<polygon fill="black" stroke="black" points="687.712,-133.47 689.833,-123.089 681.702,-129.882 687.712,-133.47"/>
<text text-anchor="middle" x="699.5" y="-144.8" font-family="Times,serif" font-size="14.00">rdf:type</text>
</g>
<!-- LITERAL -->
<g id="node6" class="node"><title>LITERAL</title>
<ellipse fill="none" stroke="black" cx="843" cy="-105" rx="47.3916" ry="18"/>
<text text-anchor="middle" x="843" y="-101.3" font-family="Times,serif" font-size="14.00">LITERAL</text>
</g>
<!-- MONARCH&#45;&gt;LITERAL -->
<g id="edge5" class="edge"><title>MONARCH&#45;&gt;LITERAL</title>
<path fill="none" stroke="black" d="M597.169,-183.976C633.209,-178.246 682.694,-168.97 725,-156 752.734,-147.498 782.824,-134.687 805.677,-124.162"/>
<polygon fill="black" stroke="black" points="807.419,-127.211 815.001,-119.81 804.459,-120.868 807.419,-127.211"/>
<text text-anchor="middle" x="791" y="-144.8" font-family="Times,serif" font-size="14.00">rdfs:label</text>
</g>
<!-- GOLD|SILVER -->
<g id="node7" class="node"><title>GOLD|SILVER</title>
<ellipse fill="none" stroke="black" cx="976" cy="-105" rx="67.6881" ry="18"/>
<text text-anchor="middle" x="976" y="-101.3" font-family="Times,serif" font-size="14.00">GOLD|SILVER</text>
</g>
<!-- MONARCH&#45;&gt;GOLD|SILVER -->
<g id="edge6" class="edge"><title>MONARCH&#45;&gt;GOLD|SILVER</title>
<path fill="none" stroke="black" d="M600.803,-187.087C656.422,-182.353 745.527,-172.841 821,-156 858.103,-147.721 898.987,-134.346 929.446,-123.513"/>
<polygon fill="black" stroke="black" points="930.726,-126.772 938.951,-120.094 928.357,-120.185 930.726,-126.772"/>
<text text-anchor="middle" x="962" y="-144.8" font-family="Times,serif" font-size="14.00">GENO:0000866 ! has_quantifier</text>
</g>
<!-- Stage:Id -->
<g id="node8" class="node"><title>Stage:Id</title>
<ellipse fill="none" stroke="black" cx="1110" cy="-105" rx="40.0939" ry="18"/>
<text text-anchor="middle" x="1110" y="-101.3" font-family="Times,serif" font-size="14.00">Stage:Id</text>
</g>
<!-- MONARCH&#45;&gt;Stage:Id -->
<g id="edge7" class="edge"><title>MONARCH&#45;&gt;Stage:Id</title>
<path fill="none" stroke="black" d="M603.185,-191.728C717.91,-192.473 975.01,-190.131 1055,-156 1068.62,-150.188 1081.08,-139.541 1090.68,-129.56"/>
<polygon fill="black" stroke="black" points="1093.29,-131.896 1097.44,-122.149 1088.12,-127.179 1093.29,-131.896"/>
<text text-anchor="middle" x="1138.5" y="-144.8" font-family="Times,serif" font-size="14.00">NCIT:C48308 ! Stage</text>
</g>
<!-- NCBIAssembly:Id -->
<g id="node10" class="node"><title>NCBIAssembly:Id</title>
<ellipse fill="none" stroke="black" cx="1254" cy="-105" rx="77.1866" ry="18"/>
<text text-anchor="middle" x="1254" y="-101.3" font-family="Times,serif" font-size="14.00">NCBIAssembly:Id</text>
</g>
<!-- MONARCH&#45;&gt;NCBIAssembly:Id -->
<g id="edge10" class="edge"><title>MONARCH&#45;&gt;NCBIAssembly:Id</title>
<path fill="none" stroke="black" d="M602.883,-190.272C751.497,-188.021 1148.84,-179.822 1203,-156 1215.41,-150.539 1226.53,-140.618 1235.19,-131.044"/>
<polygon fill="black" stroke="black" points="1238.06,-133.077 1241.86,-123.189 1232.72,-128.545 1238.06,-133.077"/>
<text text-anchor="middle" x="1285" y="-144.8" font-family="Times,serif" font-size="14.00">~~~expression context</text>
</g>
<!-- NCBITaxon -->
<g id="node9" class="node"><title>NCBITaxon</title>
<ellipse fill="none" stroke="black" cx="215" cy="-18" rx="53.8905" ry="18"/>
<text text-anchor="middle" x="215" y="-14.3" font-family="Times,serif" font-size="14.00">NCBITaxon</text>
</g>
<!-- Gene:Id&#45;&gt;NCBITaxon -->
<g id="edge8" class="edge"><title>Gene:Id&#45;&gt;NCBITaxon</title>
<path fill="none" stroke="black" d="M85.9062,-90.7188C111.009,-76.773 150.754,-54.692 179.517,-38.7129"/>
<polygon fill="black" stroke="black" points="181.395,-41.6734 188.437,-33.7573 177.995,-35.5542 181.395,-41.6734"/>
<text text-anchor="middle" x="211.5" y="-57.8" font-family="Times,serif" font-size="14.00">RO:0002162 ! in taxon</text>
</g>
<!-- Anatomy:Id&#45;&gt;NCBITaxon -->
<g id="edge9" class="edge"><title>Anatomy:Id&#45;&gt;NCBITaxon</title>
<path fill="none" stroke="black" d="M387.517,-90.5315C352.234,-75.902 295.749,-52.4815 257.09,-36.4521"/>
<polygon fill="black" stroke="black" points="258.248,-33.1431 247.67,-32.546 255.567,-39.6093 258.248,-33.1431"/>
<text text-anchor="middle" x="393.5" y="-57.8" font-family="Times,serif" font-size="14.00">RO:0002162 ! in taxon</text>
</g>
<!-- genomeVersion -->
<g id="node11" class="node"><title>genomeVersion</title>
<ellipse fill="none" stroke="black" cx="1254" cy="-18" rx="66.8882" ry="18"/>
<text text-anchor="middle" x="1254" y="-14.3" font-family="Times,serif" font-size="14.00">genomeVersion</text>
</g>
<!-- NCBIAssembly:Id&#45;&gt;genomeVersion -->
<g id="edge11" class="edge"><title>NCBIAssembly:Id&#45;&gt;genomeVersion</title>
<path fill="none" stroke="black" d="M1254,-86.799C1254,-75.1626 1254,-59.5479 1254,-46.2368"/>
<polygon fill="black" stroke="black" points="1257.5,-46.1754 1254,-36.1754 1250.5,-46.1755 1257.5,-46.1754"/>
<text text-anchor="middle" x="1293" y="-57.8" font-family="Times,serif" font-size="14.00">~~~synomym</text>
</g>
</g>
</svg>
