<?xml version="1.0" encoding="UTF-8" standalone="no"?>
<!DOCTYPE svg PUBLIC "-//W3C//DTD SVG 1.1//EN"
 "http://www.w3.org/Graphics/SVG/1.1/DTD/svg11.dtd">
<!-- Generated by graphviz version 2.38.0 (20140413.2041)
 -->
<!-- Title: bgee_sqlite3_schema.ddl Pages: 1 -->
<svg width="458pt" height="410pt"
 viewBox="0.00 0.00 458.00 409.50" xmlns="http://www.w3.org/2000/svg" xmlns:xlink="http://www.w3.org/1999/xlink">
<g id="graph0" class="graph" transform="scale(1 1) rotate(0) translate(4 405.5)">
<title>bgee_sqlite3_schema.ddl</title>
<polygon fill="white" stroke="none" points="-4,4 -4,-405.5 454,-405.5 454,4 -4,4"/>
<!-- anatEntity -->
<g id="node1" class="node"><title>anatEntity</title>
<path fill="none" stroke="black" d="M324.5,-309C324.5,-309 435.5,-309 435.5,-309 441.5,-309 447.5,-315 447.5,-321 447.5,-321 447.5,-389 447.5,-389 447.5,-395 441.5,-401 435.5,-401 435.5,-401 324.5,-401 324.5,-401 318.5,-401 312.5,-395 312.5,-389 312.5,-389 312.5,-321 312.5,-321 312.5,-315 318.5,-309 324.5,-309"/>
<text text-anchor="middle" x="380" y="-385.8" font-family="Times,serif" font-size="14.00">anatEntity</text>
<polyline fill="none" stroke="black" points="312.5,-378 447.5,-378 "/>
<text text-anchor="middle" x="380" y="-362.8" font-family="Times,serif" font-size="14.00">anatEntityId</text>
<polyline fill="none" stroke="black" points="312.5,-355 447.5,-355 "/>
<text text-anchor="middle" x="380" y="-339.8" font-family="Times,serif" font-size="14.00">anatEntityName</text>
<polyline fill="none" stroke="black" points="312.5,-332 447.5,-332 "/>
<text text-anchor="middle" x="380" y="-316.8" font-family="Times,serif" font-size="14.00">anatEntityDescription</text>
</g>
<!-- gene -->
<g id="node2" class="node"><title>gene</title>
<path fill="none" stroke="black" d="M175.5,-82C175.5,-82 256.5,-82 256.5,-82 262.5,-82 268.5,-88 268.5,-94 268.5,-94 268.5,-208 268.5,-208 268.5,-214 262.5,-220 256.5,-220 256.5,-220 175.5,-220 175.5,-220 169.5,-220 163.5,-214 163.5,-208 163.5,-208 163.5,-94 163.5,-94 163.5,-88 169.5,-82 175.5,-82"/>
<text text-anchor="middle" x="216" y="-204.8" font-family="Times,serif" font-size="14.00">gene</text>
<polyline fill="none" stroke="black" points="163.5,-197 268.5,-197 "/>
<text text-anchor="middle" x="216" y="-181.8" font-family="Times,serif" font-size="14.00">bgeeGeneId</text>
<polyline fill="none" stroke="black" points="163.5,-174 268.5,-174 "/>
<text text-anchor="middle" x="216" y="-158.8" font-family="Times,serif" font-size="14.00">geneId</text>
<polyline fill="none" stroke="black" points="163.5,-151 268.5,-151 "/>
<text text-anchor="middle" x="216" y="-135.8" font-family="Times,serif" font-size="14.00">geneName</text>
<polyline fill="none" stroke="black" points="163.5,-128 268.5,-128 "/>
<text text-anchor="middle" x="216" y="-112.8" font-family="Times,serif" font-size="14.00">geneDescription</text>
<polyline fill="none" stroke="black" points="163.5,-105 268.5,-105 "/>
<text text-anchor="middle" x="216" y="-89.8" font-family="Times,serif" font-size="14.00">speciesId</text>
</g>
<!-- species -->
<g id="node3" class="node"><title>species</title>
<path fill="none" stroke="black" d="M322,-0.5C322,-0.5 438,-0.5 438,-0.5 444,-0.5 450,-6.5 450,-12.5 450,-12.5 450,-149.5 450,-149.5 450,-155.5 444,-161.5 438,-161.5 438,-161.5 322,-161.5 322,-161.5 316,-161.5 310,-155.5 310,-149.5 310,-149.5 310,-12.5 310,-12.5 310,-6.5 316,-0.5 322,-0.5"/>
<text text-anchor="middle" x="380" y="-146.3" font-family="Times,serif" font-size="14.00">species</text>
<polyline fill="none" stroke="black" points="310,-138.5 450,-138.5 "/>
<text text-anchor="middle" x="380" y="-123.3" font-family="Times,serif" font-size="14.00">speciesId</text>
<polyline fill="none" stroke="black" points="310,-115.5 450,-115.5 "/>
<text text-anchor="middle" x="380" y="-100.3" font-family="Times,serif" font-size="14.00">genus</text>
<polyline fill="none" stroke="black" points="310,-92.5 450,-92.5 "/>
<text text-anchor="middle" x="380" y="-77.3" font-family="Times,serif" font-size="14.00">species</text>
<polyline fill="none" stroke="black" points="310,-69.5 450,-69.5 "/>
<text text-anchor="middle" x="380" y="-54.3" font-family="Times,serif" font-size="14.00">speciesCommonName</text>
<polyline fill="none" stroke="black" points="310,-46.5 450,-46.5 "/>
<text text-anchor="middle" x="380" y="-31.3" font-family="Times,serif" font-size="14.00">genomeVersion</text>
<polyline fill="none" stroke="black" points="310,-23.5 450,-23.5 "/>
<text text-anchor="middle" x="380" y="-8.3" font-family="Times,serif" font-size="14.00">genomeSpeciesId</text>
</g>
<!-- gene&#45;&gt;species -->
<g id="edge1" class="edge"><title>gene:speciesId&#45;&gt;species:speciesId</title>
<path fill="none" stroke="black" d="M270,-93C289.322,-93 288.073,-116.317 300.323,-124.332"/>
<polygon fill="black" stroke="black" points="299.429,-127.716 310,-127 301.29,-120.968 299.429,-127.716"/>
</g>
<!-- globalCond -->
<g id="node4" class="node"><title>globalCond</title>
<path fill="none" stroke="black" d="M170,-239.5C170,-239.5 262,-239.5 262,-239.5 268,-239.5 274,-245.5 274,-251.5 274,-251.5 274,-342.5 274,-342.5 274,-348.5 268,-354.5 262,-354.5 262,-354.5 170,-354.5 170,-354.5 164,-354.5 158,-348.5 158,-342.5 158,-342.5 158,-251.5 158,-251.5 158,-245.5 164,-239.5 170,-239.5"/>
<text text-anchor="middle" x="216" y="-339.3" font-family="Times,serif" font-size="14.00">globalCond</text>
<polyline fill="none" stroke="black" points="158,-331.5 274,-331.5 "/>
<text text-anchor="middle" x="216" y="-316.3" font-family="Times,serif" font-size="14.00">globalConditionId</text>
<polyline fill="none" stroke="black" points="158,-308.5 274,-308.5 "/>
<text text-anchor="middle" x="216" y="-293.3" font-family="Times,serif" font-size="14.00">anatEntityId</text>
<polyline fill="none" stroke="black" points="158,-285.5 274,-285.5 "/>
<text text-anchor="middle" x="216" y="-270.3" font-family="Times,serif" font-size="14.00">stageId</text>
<polyline fill="none" stroke="black" points="158,-262.5 274,-262.5 "/>
<text text-anchor="middle" x="216" y="-247.3" font-family="Times,serif" font-size="14.00">speciesId</text>
</g>
<!-- globalCond&#45;&gt;anatEntity -->
<g id="edge2" class="edge"><title>globalCond:anatEntityId&#45;&gt;anatEntity:anatEntityId</title>
<path fill="none" stroke="black" d="M274,-297C305.066,-297 282.692,-351.555 301.233,-364.341"/>
<polygon fill="black" stroke="black" points="300.432,-367.751 311,-367 302.27,-360.996 300.432,-367.751"/>
</g>
<!-- globalCond&#45;&gt;species -->
<g id="edge4" class="edge"><title>globalCond:speciesId&#45;&gt;species:speciesId</title>
<path fill="none" stroke="black" d="M274,-251C327.352,-251 263.018,-143.824 299.82,-128.753"/>
<polygon fill="black" stroke="black" points="300.739,-132.146 310,-127 299.551,-125.248 300.739,-132.146"/>
</g>
<!-- stage -->
<g id="node5" class="node"><title>stage</title>
<path fill="none" stroke="black" d="M338.5,-198C338.5,-198 421.5,-198 421.5,-198 427.5,-198 433.5,-204 433.5,-210 433.5,-210 433.5,-278 433.5,-278 433.5,-284 427.5,-290 421.5,-290 421.5,-290 338.5,-290 338.5,-290 332.5,-290 326.5,-284 326.5,-278 326.5,-278 326.5,-210 326.5,-210 326.5,-204 332.5,-198 338.5,-198"/>
<text text-anchor="middle" x="380" y="-274.8" font-family="Times,serif" font-size="14.00">stage</text>
<polyline fill="none" stroke="black" points="326.5,-267 433.5,-267 "/>
<text text-anchor="middle" x="380" y="-251.8" font-family="Times,serif" font-size="14.00">stageId</text>
<polyline fill="none" stroke="black" points="326.5,-244 433.5,-244 "/>
<text text-anchor="middle" x="380" y="-228.8" font-family="Times,serif" font-size="14.00">stageName</text>
<polyline fill="none" stroke="black" points="326.5,-221 433.5,-221 "/>
<text text-anchor="middle" x="380" y="-205.8" font-family="Times,serif" font-size="14.00">stageDescription</text>
</g>
<!-- globalCond&#45;&gt;stage -->
<g id="edge3" class="edge"><title>globalCond:stageId&#45;&gt;stage:stageId</title>
<path fill="none" stroke="black" d="M274,-274C294.093,-274 299.435,-261.422 314.688,-257.295"/>
<polygon fill="black" stroke="black" points="315.514,-260.718 325,-256 314.642,-253.773 315.514,-260.718"/>
</g>
<!-- globalExpression -->
<g id="node6" class="node"><title>globalExpression</title>
<path fill="none" stroke="black" d="M12,-206.5C12,-206.5 110,-206.5 110,-206.5 116,-206.5 122,-212.5 122,-218.5 122,-218.5 122,-309.5 122,-309.5 122,-315.5 116,-321.5 110,-321.5 110,-321.5 12,-321.5 12,-321.5 6,-321.5 0,-315.5 0,-309.5 0,-309.5 0,-218.5 0,-218.5 0,-212.5 6,-206.5 12,-206.5"/>
<text text-anchor="middle" x="61" y="-306.3" font-family="Times,serif" font-size="14.00">globalExpression</text>
<polyline fill="none" stroke="black" points="0,-298.5 122,-298.5 "/>
<text text-anchor="middle" x="61" y="-283.3" font-family="Times,serif" font-size="14.00">globalExpressionId</text>
<polyline fill="none" stroke="black" points="0,-275.5 122,-275.5 "/>
<text text-anchor="middle" x="61" y="-260.3" font-family="Times,serif" font-size="14.00">bgeeGeneId</text>
<polyline fill="none" stroke="black" points="0,-252.5 122,-252.5 "/>
<text text-anchor="middle" x="61" y="-237.3" font-family="Times,serif" font-size="14.00">globalConditionId</text>
<polyline fill="none" stroke="black" points="0,-229.5 122,-229.5 "/>
<text text-anchor="middle" x="61" y="-214.3" font-family="Times,serif" font-size="14.00">summaryQuality</text>
</g>
<!-- globalExpression&#45;&gt;gene -->
<g id="edge5" class="edge"><title>globalExpression:bgeeGeneId&#45;&gt;gene:bgeeGeneId</title>
<path fill="none" stroke="black" d="M122,-264C156.85,-264 130.184,-201.585 152.058,-188.42"/>
<polygon fill="black" stroke="black" points="153.111,-191.766 162,-186 151.456,-184.964 153.111,-191.766"/>
</g>
<!-- globalExpression&#45;&gt;globalCond -->
<g id="edge6" class="edge"><title>globalExpression:globalConditionId&#45;&gt;globalCond:globalConditionId</title>
<path fill="none" stroke="black" d="M122,-241C156.515,-241 127.212,-304.215 148.266,-317.549"/>
<polygon fill="black" stroke="black" points="147.448,-320.952 158,-320 149.157,-314.164 147.448,-320.952"/>
</g>
</g>
</svg>
